<?xml version="1.0" encoding="UTF-8"?>
<svg width="1529px" height="1832px" viewBox="0 0 1529 1832" version="1.1" xmlns="http://www.w3.org/2000/svg" xmlns:xlink="http://www.w3.org/1999/xlink">
    <title>Group 2</title>
    <g id="Page-1" stroke="none" stroke-width="1" fill="none" fill-rule="evenodd">
        <g id="Group-2" transform="translate(0.840659, 104.000000)" fill="#363636">
            <g id="Group" transform="translate(0.000000, 939.005495)">
                <path d="M72.1153846,113.324176 L24.896978,113.324176 L24.896978,107.31456 L41.2087912,107.31456 L41.2087912,12.8777473 L8.58516484,12.8777473 L8.58516484,25.7554945 L0.858516484,25.7554945 L0.858516484,1.42108547e-14 L8.58516484,1.42108547e-14 L8.58516484,4.29258242 L89.2857143,4.29258242 L89.2857143,1.42108547e-14 L97.0123626,1.42108547e-14 L97.0123626,25.7554945 L89.2857143,25.7554945 L89.2857143,12.8777473 L56.6620879,12.8777473 L56.6620879,107.31456 L72.9739011,107.31456 C72.1153846,107.31456 72.1153846,113.324176 72.1153846,113.324176 L72.1153846,113.324176 Z M221.497253,113.324176 L182.005495,113.324176 L182.005495,107.31456 L194.024725,107.31456 L194.024725,61.8131868 L132.211538,61.8131868 L132.211538,107.31456 L144.230769,107.31456 L144.230769,113.324176 L104.739011,113.324176 L104.739011,107.31456 L116.758242,107.31456 L116.758242,11.1607143 L104.739011,11.1607143 L104.739011,5.1510989 L144.230769,5.1510989 L144.230769,11.1607143 L132.211538,11.1607143 L132.211538,54.9450549 L194.024725,54.9450549 L194.024725,11.1607143 L182.005495,11.1607143 L182.005495,5.1510989 L221.497253,5.1510989 L221.497253,11.1607143 L208.619505,11.1607143 L208.619505,107.31456 L221.497253,107.31456 L221.497253,113.324176 L221.497253,113.324176 Z M310.782967,113.324176 L236.092033,113.324176 L236.092033,107.31456 L248.111264,107.31456 L248.111264,11.1607143 L236.092033,11.1607143 L236.092033,5.1510989 L301.339286,5.1510989 L301.339286,0.858516484 L309.065934,0.858516484 L309.065934,26.614011 L301.339286,26.614011 L301.339286,12.8777473 L262.706044,12.8777473 L262.706044,54.9450549 L293.612637,54.9450549 L293.612637,42.9258242 L301.339286,42.9258242 L301.339286,75.5494505 L293.612637,75.5494505 L293.612637,62.6717033 L262.706044,62.6717033 L262.706044,106.456044 L303.056319,106.456044 L303.056319,91.8612637 L310.782967,91.8612637 L310.782967,113.324176 L310.782967,113.324176 Z M473.042582,11.1607143 L461.023352,11.1607143 L461.023352,73.8324176 C461.023352,91.0027473 455.013736,103.021978 441.277473,109.89011 C434.409341,113.324176 426.682692,115.899725 418.097527,115.899725 C394.059066,115.899725 376.888736,100.446429 376.888736,78.125 L376.888736,11.1607143 L364.869505,11.1607143 L364.869505,5.1510989 L404.361264,5.1510989 L404.361264,11.1607143 L392.342033,11.1607143 L392.342033,72.9739011 C392.342033,92.7197802 404.361264,105.597527 422.39011,105.597527 C441.277473,105.597527 454.15522,91.8612637 454.15522,72.1153846 L454.15522,10.3021978 L442.135989,10.3021978 L442.135989,4.29258242 L475.618132,4.29258242 L473.042582,11.1607143 L473.042582,11.1607143 Z M574.347527,115.041209 L569.196429,115.041209 L505.666209,28.331044 L505.666209,107.31456 L518.543956,107.31456 L518.543956,113.324176 L485.061813,113.324176 L485.061813,107.31456 L497.93956,107.31456 L497.93956,17.1703297 L493.646978,11.1607143 L482.486264,11.1607143 L482.486264,5.1510989 L506.524725,5.1510989 L566.620879,87.5686813 L566.620879,11.1607143 L553.743132,11.1607143 L553.743132,5.1510989 L587.225275,5.1510989 L587.225275,11.1607143 L575.206044,11.1607143 L574.347527,115.041209 Z M637.877747,113.324176 L598.385989,113.324176 L598.385989,107.31456 L610.40522,107.31456 L610.40522,11.1607143 L598.385989,11.1607143 L598.385989,5.1510989 L637.877747,5.1510989 L637.877747,11.1607143 L625.858516,11.1607143 L625.858516,107.31456 L637.877747,107.31456 L637.877747,113.324176 L637.877747,113.324176 Z M703.983516,115.899725 L698.832418,115.899725 L657.623626,10.3021978 L648.179945,10.3021978 L648.179945,4.29258242 L689.388736,4.29258242 L689.388736,10.3021978 L673.93544,10.3021978 L705.700549,91.0027473 L737.465659,10.3021978 L726.304945,10.3021978 L726.304945,4.29258242 L754.635989,4.29258242 L754.635989,10.3021978 L746.050824,10.3021978 L703.983516,115.899725 L703.983516,115.899725 Z M838.770604,113.324176 L764.07967,113.324176 L764.07967,107.31456 L776.098901,107.31456 L776.098901,11.1607143 L764.07967,11.1607143 L764.07967,5.1510989 L829.326923,5.1510989 L829.326923,0.858516484 L837.053571,0.858516484 L837.053571,26.614011 L829.326923,26.614011 L829.326923,12.8777473 L790.693681,12.8777473 L790.693681,54.9450549 L821.600275,54.9450549 L821.600275,42.9258242 L829.326923,42.9258242 L829.326923,75.5494505 L821.600275,75.5494505 L821.600275,62.6717033 L790.693681,62.6717033 L790.693681,106.456044 L831.043956,106.456044 L831.043956,91.8612637 L838.770604,91.8612637 L838.770604,113.324176 L838.770604,113.324176 Z M949.519231,113.324176 L935.782967,113.324176 C926.339286,113.324176 924.622253,112.465659 918.612637,103.880495 L893.715659,65.2472527 L880.837912,65.2472527 L880.837912,108.173077 L892.857143,108.173077 L892.857143,114.182692 L853.365385,114.182692 L853.365385,108.173077 L865.384615,108.173077 L865.384615,11.1607143 L853.365385,11.1607143 L853.365385,5.1510989 L898.866758,5.1510989 C915.178571,5.1510989 923.763736,9.44368132 928.914835,19.7458791 C930.631868,24.0384615 932.348901,29.1895604 932.348901,34.3406593 C932.348901,50.6524725 923.763736,60.0961538 907.451923,62.6717033 L931.490385,99.5879121 C935.782967,105.597527 938.358516,107.31456 941.792582,107.31456 L947.802198,107.31456 L947.802198,113.324176 L949.519231,113.324176 Z M880.837912,56.6620879 L896.291209,56.6620879 C909.168956,56.6620879 917.754121,47.2184066 917.754121,34.3406593 C917.754121,20.6043956 910.027473,12.0192308 896.291209,12.0192308 L880.837912,12.0192308 L880.837912,56.6620879 L880.837912,56.6620879 Z M970.123626,115.041209 L962.396978,115.041209 L962.396978,85.8516484 L970.123626,85.8516484 L970.123626,98.7293956 C980.425824,105.597527 984.718407,107.31456 991.586538,107.31456 C1004.46429,107.31456 1013.90797,100.446429 1013.90797,90.1442308 C1013.90797,80.7005495 1007.89835,73.8324176 989.869505,64.3887363 C969.26511,53.228022 962.396978,45.5013736 962.396978,31.7651099 C962.396978,15.4532967 976.133242,3.43406593 995.020604,3.43406593 C1003.60577,3.43406593 1009.61538,5.1510989 1014.76648,7.72664835 L1014.76648,1.71703297 L1022.49313,1.71703297 L1022.49313,30.0480769 L1014.76648,30.0480769 L1014.76648,18.0288462 C1006.18132,12.0192308 1001.88874,11.1607143 995.879121,11.1607143 C984.718407,11.1607143 977.850275,18.0288462 977.850275,28.331044 C977.850275,36.9162088 983.001374,41.2087912 1003.60577,53.228022 C1024.21016,65.2472527 1030.21978,72.1153846 1030.21978,85.8516484 C1030.21978,103.021978 1016.48352,115.899725 997.596154,115.899725 C987.293956,115.899725 980.425824,114.182692 971.840659,108.173077 L970.123626,115.041209 L970.123626,115.041209 Z M1082.58929,113.324176 L1043.09753,113.324176 L1043.09753,107.31456 L1055.11676,107.31456 L1055.11676,11.1607143 L1043.09753,11.1607143 L1043.09753,5.1510989 L1082.58929,5.1510989 L1082.58929,11.1607143 L1070.57005,11.1607143 L1070.57005,107.31456 L1082.58929,107.31456 L1082.58929,113.324176 L1082.58929,113.324176 Z M1165.00687,113.324176 L1117.78846,113.324176 L1117.78846,107.31456 L1134.10027,107.31456 L1134.10027,12.8777473 L1101.47665,12.8777473 L1101.47665,25.7554945 L1093.75,25.7554945 L1093.75,1.42108547e-14 L1101.47665,1.42108547e-14 L1101.47665,4.29258242 L1182.1772,4.29258242 L1182.1772,1.42108547e-14 L1189.90385,1.42108547e-14 L1189.90385,25.7554945 L1182.1772,25.7554945 L1182.1772,12.8777473 L1148.69505,12.8777473 L1148.69505,107.31456 L1165.00687,107.31456 L1165.00687,113.324176 Z M1268.88736,113.324176 L1229.3956,113.324176 L1229.3956,107.31456 L1241.41484,107.31456 L1241.41484,63.5302198 L1207.07418,11.1607143 L1197.63049,11.1607143 L1197.63049,5.1510989 L1237.98077,5.1510989 L1237.98077,11.1607143 L1223.38599,11.1607143 L1251.71703,54.0865385 L1277.47253,11.1607143 L1262.87775,11.1607143 L1262.87775,5.1510989 L1295.50137,5.1510989 L1295.50137,11.1607143 L1286.91621,11.1607143 L1255.1511,62.6717033 L1255.1511,107.31456 L1268.02885,107.31456 L1268.02885,113.324176 L1268.88736,113.324176 Z M1339.28571,59.2376374 C1339.28571,28.331044 1363.32418,2.57554945 1392.51374,2.57554945 C1420.84478,2.57554945 1444.88324,28.331044 1444.88324,59.2376374 C1444.88324,90.1442308 1420.84478,115.899725 1392.51374,115.899725 C1363.32418,115.041209 1339.28571,90.1442308 1339.28571,59.2376374 Z M1355.59753,59.2376374 C1355.59753,86.7101648 1371.05082,107.31456 1392.51374,107.31456 C1413.97665,107.31456 1428.57143,86.7101648 1428.57143,59.2376374 C1428.57143,31.7651099 1413.11813,11.1607143 1392.51374,11.1607143 C1371.05082,11.1607143 1355.59753,30.9065934 1355.59753,59.2376374 Z M1494.6772,113.324176 L1455.18544,113.324176 L1455.18544,107.31456 L1467.20467,107.31456 L1467.20467,11.1607143 L1455.18544,11.1607143 L1455.18544,5.1510989 L1520.43269,5.1510989 L1520.43269,0.858516484 L1528.15934,0.858516484 L1528.15934,26.614011 L1520.43269,26.614011 L1520.43269,12.8777473 L1481.79945,12.8777473 L1481.79945,54.9450549 L1512.70604,54.9450549 L1512.70604,42.9258242 L1520.43269,42.9258242 L1520.43269,75.5494505 L1512.70604,75.5494505 L1512.70604,62.6717033 L1481.79945,62.6717033 L1481.79945,108.173077 L1493.81868,108.173077 L1494.6772,113.324176 Z" id="Shape" fill-rule="nonzero"></path>
                <path d="M20.6043956,464.457418 L1.13686838e-13,464.457418 L1.13686838e-13,386.332418 L20.6043956,386.332418 L20.6043956,420.673077 C47.2184066,438.701923 58.3791209,442.994505 78.125,442.994505 C112.465659,442.994505 136.504121,424.965659 136.504121,397.493132 C136.504121,372.596154 119.333791,354.567308 72.9739011,330.528846 C18.0288462,302.197802 1.13686838e-13,279.876374 1.13686838e-13,244.677198 C1.13686838e-13,201.751374 36.0576923,169.986264 84.9931319,169.986264 C106.456044,169.986264 122.767857,174.278846 136.504121,182.005495 L136.504121,166.552198 L156.25,166.552198 L156.25,240.384615 L136.504121,240.384615 L136.504121,209.478022 C114.182692,194.883242 103.880495,190.590659 85.8516484,190.590659 C56.6620879,190.590659 36.9162088,208.619505 36.9162088,235.233516 C36.9162088,257.554945 49.793956,270.432692 103.880495,301.339286 C157.967033,332.245879 173.42033,351.991758 173.42033,387.190934 C173.42033,432.692308 136.504121,467.032967 86.7101648,467.032967 C59.2376374,467.032967 41.2087912,461.023352 19.7458791,447.287088 L20.6043956,464.457418 L20.6043956,464.457418 Z M367.445055,461.023352 L264.423077,461.023352 L264.423077,444.711538 L297.046703,444.711538 L297.046703,328.811813 L206.902473,190.590659 L182.005495,190.590659 L182.005495,174.278846 L289.320055,174.278846 L289.320055,190.590659 L249.828297,190.590659 L324.519231,304.773352 L393.200549,190.590659 L353.708791,190.590659 L353.708791,174.278846 L440.418956,174.278846 L440.418956,190.590659 L418.097527,190.590659 L334.821429,326.236264 L334.821429,444.711538 L367.445055,444.711538 L367.445055,461.023352 L367.445055,461.023352 Z M461.881868,461.023352 L461.881868,444.711538 L494.505495,444.711538 L494.505495,190.590659 L461.881868,190.590659 L461.881868,174.278846 L589.800824,174.278846 C667.925824,174.278846 731.456044,238.667582 731.456044,316.792582 C731.456044,396.634615 668.784341,460.164835 588.942308,460.164835 L461.881868,460.164835 L461.881868,461.023352 L461.881868,461.023352 Z M532.28022,439.56044 L584.649725,439.56044 C643.887363,439.56044 689.388736,387.190934 688.53022,318.509615 C688.53022,251.54533 642.17033,197.458791 585.508242,197.458791 L532.28022,197.458791 L532.28022,439.56044 Z M982.142857,465.315934 L968.406593,465.315934 L801.854396,236.092033 L801.854396,444.711538 L834.478022,444.711538 L834.478022,461.023352 L746.909341,461.023352 L746.909341,444.711538 L779.532967,444.711538 L779.532967,206.902473 L767.513736,190.590659 L737.465659,190.590659 L737.465659,174.278846 L800.137363,174.278846 L959.821429,392.342033 L959.821429,190.590659 L927.197802,190.590659 L927.197802,174.278846 L1014.76648,174.278846 L1014.76648,190.590659 L982.142857,190.590659 L982.142857,465.315934 L982.142857,465.315934 Z M1241.41484,461.023352 L1043.95604,461.023352 L1043.95604,444.711538 L1076.57967,444.711538 L1076.57967,190.590659 L1043.95604,190.590659 L1043.95604,174.278846 L1217.37637,174.278846 L1217.37637,162.259615 L1237.12225,162.259615 L1237.12225,230.940934 L1217.37637,230.940934 L1217.37637,194.024725 L1114.3544,194.024725 L1114.3544,305.631868 L1195.91346,305.631868 L1195.91346,273.008242 L1215.65934,272.149725 L1215.65934,358.001374 L1195.91346,358.85989 L1195.91346,325.377747 L1114.3544,325.377747 L1114.3544,441.277473 L1220.81044,441.277473 L1220.81044,403.502747 L1240.55632,403.502747 C1241.41484,403.502747 1241.41484,461.023352 1241.41484,461.023352 L1241.41484,461.023352 Z M1455.18544,461.023352 L1352.16346,461.023352 L1352.16346,444.711538 L1384.78709,444.711538 L1384.78709,328.811813 L1294.64286,190.590659 L1269.74588,190.590659 L1269.74588,174.278846 L1377.06044,174.278846 L1377.06044,190.590659 L1337.56868,190.590659 L1412.25962,304.773352 L1480.94093,190.590659 L1441.44918,190.590659 L1441.44918,174.278846 L1528.15934,174.278846 L1528.15934,190.590659 L1505.83791,190.590659 L1422.56181,326.236264 L1422.56181,444.711538 L1455.18544,444.711538 L1455.18544,461.023352 Z" id="Shape" fill-rule="nonzero"></path>
                <text id="Sydney-Informatics-H" font-family="TimesNewRomanPSMT, Times New Roman" font-size="155" font-weight="normal">
                    <tspan x="2.21476058" y="650.994505">Sydney Informatics Hub</tspan>
                </text>
            </g>
            <path d="M786.559066,562.328297 L850.947802,562.328297 L850.947802,552.884615 L786.559066,552.884615 L786.559066,562.328297 Z M786.559066,588.942308 L850.947802,588.942308 L850.947802,579.498626 L786.559066,579.498626 L786.559066,588.942308 Z M786.559066,535.714286 L850.947802,535.714286 L850.947802,526.270604 L786.559066,526.270604 L786.559066,535.714286 Z M741.057692,552.884615 L676.668956,552.884615 L676.668956,562.328297 L741.057692,562.328297 L741.057692,552.884615 Z M741.057692,579.498626 L676.668956,579.498626 L676.668956,588.942308 L741.057692,588.942308 L741.057692,579.498626 Z M741.057692,526.270604 L676.668956,526.270604 L676.668956,535.714286 L741.057692,535.714286 L741.057692,526.270604 Z M842.362637,356.284341 C816.607143,354.567308 789.993132,354.567308 763.379121,354.567308 C737.623626,354.567308 711.009615,355.425824 685.254121,356.284341 L685.254121,485.92033 L438.001374,485.92033 C448.303571,547.733516 473.200549,606.112637 510.116758,654.18956 C515.267857,647.321429 522.994505,643.028846 532.438187,643.028846 L686.112637,643.028846 L686.112637,777.815934 C711.009615,784.684066 737.623626,788.118132 764.237637,788.118132 L764.237637,788.976648 L764.237637,788.118132 C791.710165,788.118132 817.465659,784.684066 842.362637,777.815934 L842.362637,643.028846 L996.037088,643.028846 C1005.48077,643.028846 1013.20742,647.321429 1018.35852,654.18956 C1054.41621,606.112637 1080.1717,547.733516 1090.4739,485.92033 L842.362637,485.92033 L842.362637,356.284341 L842.362637,356.284341 Z M718.736264,396.634615 L752.218407,412.087912 L764.237637,377.747253 L776.256868,412.946429 L808.880495,396.634615 L792.568681,430.116758 L826.909341,442.135989 L791.710165,454.15522 L808.021978,486.778846 L774.539835,471.325549 L762.520604,505.666209 L749.642857,470.467033 L718.736264,487.637363 L734.18956,454.15522 L699.848901,442.135989 L735.048077,430.116758 C734.18956,429.258242 718.736264,396.634615 718.736264,396.634615 L718.736264,396.634615 Z M601.119505,610.40522 L568.495879,594.093407 L556.476648,629.292582 L544.457418,594.951923 L510.975275,610.40522 L527.287088,577.781593 L492.087912,565.762363 L526.428571,553.743132 L510.116758,520.260989 L542.740385,536.572802 L554.759615,501.373626 L566.778846,535.714286 L600.260989,520.260989 L583.949176,552.884615 L619.148352,565.762363 L584.807692,577.781593 L601.119505,610.40522 L601.119505,610.40522 Z M654.347527,607.82967 L639.752747,607.82967 L639.752747,597.527473 L654.347527,597.527473 L654.347527,607.82967 Z M654.347527,579.498626 L639.752747,579.498626 L639.752747,569.196429 L654.347527,569.196429 L654.347527,579.498626 Z M654.347527,551.167582 L639.752747,551.167582 L639.752747,540.865385 L654.347527,540.865385 L654.347527,551.167582 Z M654.347527,521.978022 L639.752747,521.978022 L639.752747,511.675824 L654.347527,511.675824 L654.347527,521.978022 Z M662.074176,607.82967 L662.074176,504.807692 L731.614011,504.807692 C746.208791,504.807692 757.369505,515.968407 757.369505,530.563187 L757.369505,616.414835 C752.218407,610.40522 745.350275,606.971154 737.623626,606.971154 C735.906593,607.82967 682.678571,607.82967 662.074176,607.82967 L662.074176,607.82967 Z M808.880495,741.758242 L775.398352,726.304945 L763.379121,760.645604 L750.501374,725.446429 L718.736264,741.758242 L735.048077,708.276099 L700.707418,696.256868 L735.906593,683.379121 L718.736264,650.755495 L752.218407,666.208791 L764.237637,631.868132 L777.115385,667.067308 L809.739011,650.755495 L794.285714,684.237637 L828.626374,696.256868 L793.427198,709.134615 L808.880495,741.758242 L808.880495,741.758242 Z M925.638736,519.402473 L959.120879,534.855769 L971.14011,500.51511 L984.017857,535.714286 L1016.64148,519.402473 L1000.32967,552.884615 L1034.67033,564.903846 L999.471154,576.923077 L1015.78297,609.546703 L982.300824,594.093407 L970.281593,628.434066 L959.120879,594.093407 L926.497253,610.40522 L942.809066,576.923077 L908.468407,564.903846 L943.667582,552.026099 C941.950549,552.026099 925.638736,519.402473 925.638736,519.402473 L925.638736,519.402473 Z M873.269231,511.675824 L887.864011,511.675824 L887.864011,521.978022 L873.269231,521.978022 L873.269231,511.675824 L873.269231,511.675824 Z M873.269231,540.006868 L887.864011,540.006868 L887.864011,550.309066 L873.269231,550.309066 L873.269231,540.006868 L873.269231,540.006868 Z M873.269231,568.337912 L887.864011,568.337912 L887.864011,578.64011 L873.269231,578.64011 L873.269231,568.337912 L873.269231,568.337912 Z M873.269231,597.527473 L887.864011,597.527473 L887.864011,607.82967 L873.269231,607.82967 L873.269231,597.527473 L873.269231,597.527473 Z M865.542582,504.807692 L865.542582,607.82967 L790.851648,607.82967 C783.125,607.82967 775.398352,611.263736 771.105769,617.273352 L771.105769,531.421703 C771.105769,516.826923 782.266484,505.666209 796.861264,505.666209 L801.153846,505.666209 C800.29533,504.807692 865.542582,504.807692 865.542582,504.807692 L865.542582,504.807692 Z M992.603022,66.9642857 C929.072802,53.228022 844.938187,40.3502747 763.379121,40.3502747 C641.46978,40.3502747 513.550824,70.3983516 456.888736,85.8516484 C445.728022,88.4271978 437.142857,91.0027473 431.991758,92.7197802 L431.991758,369.162088 C468.907967,363.152473 620.006868,339.972527 763.379121,339.972527 C906.751374,339.972527 1057.85027,363.152473 1094.76648,369.162088 L1094.76648,91.8612637 C1089.61538,90.1442308 1081.88874,88.4271978 1069.86951,84.9931319 C1051.84066,80.7005495 1024.36813,73.8324176 992.603022,66.9642857 L992.603022,66.9642857 Z M646.620879,96.1538462 C651.771978,95.2953297 640.611264,86.7101648 647.479396,86.7101648 C651.771978,86.7101648 667.225275,86.7101648 678.385989,92.7197802 C680.961538,93.5782967 681.820055,89.2857143 686.112637,86.7101648 C686.112637,86.7101648 687.82967,85.8516484 688.688187,86.7101648 C692.980769,89.2857143 694.697802,93.5782967 697.273352,92.7197802 C708.434066,87.5686813 723.887363,87.5686813 728.179945,86.7101648 C735.906593,85.8516484 724.745879,94.4368132 729.038462,96.1538462 C754.793956,102.163462 773.681319,123.626374 773.681319,150.240385 C773.681319,157.967033 771.964286,164.835165 769.388736,171.703297 C767.671703,175.137363 764.237637,164.835165 762.520604,170.84478 C761.662088,181.146978 759.086538,188.873626 753.076923,200.034341 C747.925824,210.336538 738.482143,188.873626 735.906593,194.883242 C730.755495,205.18544 719.59478,208.619505 711.009615,210.336538 C710.151099,210.336538 709.292582,210.336538 710.151099,209.478022 C710.151099,209.478022 712.726648,206.902473 712.726648,203.468407 C712.726648,203.468407 712.726648,202.60989 713.585165,201.751374 C719.59478,199.175824 724.745879,193.166209 725.604396,186.298077 C727.321429,180.288462 729.896978,170.84478 733.331044,164.835165 C740.199176,152.815934 731.614011,137.362637 734.18956,133.928571 C739.340659,130.494505 741.916209,125.343407 741.916209,119.333791 C741.916209,109.89011 734.18956,101.304945 723.887363,101.304945 C718.736264,101.304945 713.585165,103.880495 711.009615,107.31456 L710.151099,108.173077 C708.434066,109.89011 706.717033,111.607143 705.858516,113.324176 C704.141484,115.041209 705,119.333791 707.575549,120.192308 C719.59478,123.626374 727.321429,150.240385 722.17033,158.825549 C719.59478,163.118132 713.585165,177.712912 713.585165,181.146978 C713.585165,186.298077 709.292582,190.590659 704.141484,190.590659 C699.848901,190.590659 696.414835,188.01511 694.697802,184.581044 C698.131868,182.864011 705,177.712912 705,173.42033 L703.282967,158.825549 C709.292582,157.967033 711.868132,154.532967 712.726648,149.381868 C713.585165,149.381868 713.585165,148.523352 714.443681,148.523352 C716.160714,146.806319 717.877747,141.65522 713.585165,142.513736 C707.575549,143.372253 700.707418,143.372253 693.839286,145.089286 C692.980769,145.089286 692.122253,145.947802 692.122253,146.806319 C692.122253,147.664835 695.556319,165.693681 696.414835,169.986264 C696.414835,170.84478 696.414835,170.84478 695.556319,170.84478 C692.980769,170.84478 687.82967,169.986264 686.971154,169.986264 C686.112637,169.986264 680.961538,169.986264 678.385989,170.84478 C678.385989,170.84478 677.527473,170.84478 677.527473,169.986264 C678.385989,165.693681 682.678571,147.664835 682.678571,147.664835 L682.678571,145.947802 C681.820055,144.230769 663.791209,142.513736 661.215659,142.513736 C660.357143,142.513736 659.498626,142.513736 658.64011,143.372253 C656.923077,145.947802 660.357143,148.523352 662.074176,149.381868 C662.932692,154.532967 665.508242,157.967033 671.517857,158.825549 C671.517857,159.684066 669.800824,173.42033 669.800824,173.42033 C669.800824,178.571429 676.668956,182.005495 680.961538,184.581044 L681.820055,185.43956 C680.103022,188.873626 676.668956,191.449176 672.376374,191.449176 C667.225275,191.449176 662.932692,187.156593 662.932692,182.005495 C662.932692,178.571429 656.06456,163.118132 654.347527,158.825549 C649.196429,149.381868 656.923077,122.767857 669.800824,120.192308 C672.376374,119.333791 674.093407,115.899725 671.517857,113.324176 C666.366758,108.173077 660.357143,101.304945 652.630495,101.304945 C643.186813,101.304945 634.601648,109.031593 634.601648,119.333791 C634.601648,130.494505 643.186813,132.211538 642.328297,135.645604 C638.894231,145.947802 638.894231,157.108516 643.186813,164.835165 C646.620879,169.986264 649.196429,179.429945 650.913462,185.43956 C651.771978,192.307692 656.06456,197.458791 661.215659,200.892857 C663.791209,202.60989 662.932692,204.326923 663.791209,206.902473 C664.649725,207.760989 665.508242,208.619505 665.508242,209.478022 C666.366758,210.336538 665.508242,210.336538 664.649725,210.336538 C656.06456,209.478022 644.04533,206.043956 638.894231,194.883242 C636.318681,188.873626 626.875,209.478022 621.723901,200.034341 C615.714286,189.732143 613.138736,181.146978 611.421703,170.84478 C609.70467,164.835165 606.270604,175.137363 604.553571,171.703297 C601.978022,164.835165 600.260989,157.967033 600.260989,150.240385 C601.978022,123.626374 620.865385,102.163462 646.620879,96.1538462 L646.620879,96.1538462 Z M720.453297,114.182692 L720.453297,112.465659 C721.311813,111.607143 723.028846,110.748626 724.745879,110.748626 C729.038462,110.748626 732.472527,114.182692 732.472527,118.475275 C732.472527,121.050824 731.614011,122.767857 729.896978,124.48489 C729.038462,125.343407 728.179945,124.48489 728.179945,123.626374 C726.462912,120.192308 723.887363,116.758242 720.453297,114.182692 L720.453297,114.182692 Z M702.424451,202.60989 C700.707418,207.760989 693.839286,206.043956 689.546703,208.619505 L687.82967,208.619505 C684.395604,205.18544 677.527473,206.902473 674.951923,201.751374 C674.951923,201.751374 674.951923,200.034341 675.81044,200.034341 C680.961538,199.175824 685.254121,197.458791 688.688187,193.166209 C688.688187,193.166209 689.546703,192.307692 690.40522,193.166209 C692.980769,196.600275 697.273352,198.317308 701.565934,199.175824 C702.424451,200.892857 703.282967,201.751374 702.424451,202.60989 L702.424451,202.60989 Z M650.054945,125.343407 C650.054945,125.343407 649.196429,126.201923 648.337912,125.343407 C646.620879,123.626374 645.762363,121.909341 645.762363,119.333791 C645.762363,115.041209 649.196429,111.607143 653.489011,111.607143 C655.206044,111.607143 657.781593,112.465659 658.64011,114.182692 C659.498626,115.041209 658.64011,115.899725 658.64011,115.899725 C655.206044,117.616758 651.771978,121.050824 650.054945,125.343407 Z M579.656593,226.648352 C574.505495,226.648352 571.929945,228.365385 568.495879,230.940934 C565.92033,232.657967 565.061813,227.506868 568.495879,218.063187 C571.071429,210.336538 555.618132,206.043956 552.184066,209.478022 C547.032967,213.770604 534.15522,221.497253 521.277473,207.760989 C518.701923,205.18544 527.287088,206.043956 527.287088,203.468407 C528.145604,200.034341 531.57967,198.317308 532.438187,196.600275 C533.296703,195.741758 533.296703,194.024725 531.57967,193.166209 C527.287088,191.449176 522.135989,186.298077 523.853022,177.712912 C523.853022,176.854396 516.98489,175.995879 519.56044,174.278846 C531.57967,163.118132 544.457418,169.986264 549.608516,173.42033 C550.467033,173.42033 552.184066,174.278846 552.184066,172.561813 C552.184066,169.127747 550.467033,166.552198 558.193681,160.542582 C559.910714,159.684066 553.901099,154.532967 558.193681,154.532967 C583.090659,160.542582 571.929945,186.298077 577.081044,191.449176 C586.524725,200.034341 609.70467,206.902473 631.167582,211.195055 C632.884615,211.195055 639.752747,213.770604 641.46978,214.629121 C658.64011,223.214286 669.800824,222.355769 679.244505,218.921703 C682.678571,218.063187 681.820055,221.497253 680.961538,222.355769 C646.620879,254.979396 620.006868,247.252747 610.563187,241.243132 C603.695055,236.950549 590.817308,236.950549 584.807692,245.535714 C583.949176,246.394231 582.232143,247.252747 581.373626,244.677198 C579.656593,238.667582 581.373626,234.375 583.090659,229.223901 C583.949176,227.506868 581.373626,226.648352 579.656593,226.648352 L579.656593,226.648352 Z M910.18544,257.554945 C905.892857,261.847527 897.307692,266.14011 884.429945,265.281593 C879.278846,265.281593 875.84478,266.998626 874.986264,267.857143 C873.269231,269.574176 873.269231,270.432692 873.269231,271.291209 C872.410714,273.866758 873.269231,277.300824 874.986264,279.017857 C876.703297,280.73489 875.84478,282.451923 873.269231,282.451923 C870.693681,283.31044 868.118132,283.31044 862.967033,280.73489 C860.391484,279.876374 859.532967,280.73489 859.532967,282.451923 C858.674451,285.027473 860.391484,288.461538 863.825549,291.037088 C865.542582,292.754121 865.542582,294.471154 862.108516,295.32967 C856.957418,297.046703 852.664835,294.471154 845.796703,291.037088 C841.504121,288.461538 838.070055,288.461538 835.494505,291.895604 C833.777473,293.612637 833.777473,295.32967 834.635989,296.188187 C837.211538,298.763736 838.928571,304.773352 832.06044,313.358516 C829.48489,315.934066 826.909341,308.207418 825.192308,309.065934 C815.748626,313.358516 808.021978,307.348901 804.587912,303.914835 C803.729396,303.056319 802.870879,303.056319 801.153846,303.914835 C796.002747,307.348901 785.700549,312.5 782.266484,303.056319 C781.407967,301.339286 776.256868,304.773352 776.256868,302.197802 C776.256868,286.744505 789.993132,284.168956 795.144231,283.31044 C796.861264,283.31044 796.861264,282.451923 796.002747,280.73489 C793.427198,277.300824 790.851648,273.008242 792.568681,268.715659 C793.427198,265.281593 784.842033,264.423077 788.276099,262.706044 C806.304945,254.120879 815.748626,270.432692 819.182692,272.149725 C824.333791,274.725275 847.513736,267.857143 850.089286,254.979396 C850.947802,252.403846 844.938187,251.54533 838.928571,249.828297 C838.070055,249.828297 837.211538,248.111264 838.928571,246.394231 C852.664835,236.092033 863.825549,222.355769 889.581044,219.78022 C893.01511,219.78022 893.873626,222.355769 893.873626,223.214286 C894.732143,227.506868 895.590659,230.940934 897.307692,234.375 C900.741758,242.101648 905.034341,247.252747 910.18544,250.686813 C911.902473,253.262363 911.043956,255.837912 910.18544,257.554945 L910.18544,257.554945 Z M1015.78297,248.96978 C1018.35852,249.828297 1018.35852,251.54533 1016.64148,253.262363 C1014.92445,254.979396 1012.3489,255.837912 1006.33929,255.837912 C1003.76374,255.837912 1003.76374,257.554945 1003.76374,258.413462 C1003.76374,260.989011 1007.1978,263.56456 1011.49038,263.56456 C1014.06593,264.423077 1014.06593,266.14011 1012.3489,267.857143 C1008.91484,271.291209 1003.76374,271.291209 995.178571,271.291209 C987.451923,271.291209 981.442308,280.73489 985.73489,284.168956 C989.168956,286.744505 995.178571,292.754121 990.027473,309.065934 C988.31044,314.217033 985.73489,304.773352 983.159341,306.490385 C976.291209,310.782967 971.14011,305.631868 967.706044,302.197802 C966.847527,300.480769 965.130495,300.480769 964.271978,302.197802 C961.696429,306.490385 954.828297,315.075549 941.092033,307.348901 C938.516484,305.631868 931.648352,311.641484 931.648352,309.065934 C929.072802,297.90522 935.082418,291.895604 939.375,288.461538 C940.233516,288.461538 941.950549,285.885989 938.516484,285.885989 C934.223901,285.885989 928.214286,284.168956 927.355769,278.159341 C927.355769,277.300824 921.346154,277.300824 921.346154,275.583791 C923.063187,267.857143 940.233516,261.847527 952.252747,269.574176 C962.554945,276.442308 975.432692,253.262363 965.989011,242.960165 C959.120879,235.233516 920.487637,256.696429 907.60989,229.223901 C902.458791,218.063187 909.326923,208.619505 903.317308,207.760989 C898.166209,206.902473 873.269231,201.751374 846.65522,223.214286 C801.153846,260.130495 751.35989,239.526099 739.340659,231.799451 C737.623626,230.940934 735.906593,232.657967 736.76511,234.375 C738.482143,239.526099 737.623626,243.818681 735.906593,247.252747 C730.755495,254.120879 714.443681,261.847527 711.868132,262.706044 C692.980769,268.715659 694.697802,283.31044 696.414835,289.320055 C697.273352,291.037088 696.414835,292.754121 693.839286,291.895604 C687.82967,291.037088 675.81044,287.603022 671.517857,275.583791 C670.659341,273.866758 669.800824,273.866758 668.083791,275.583791 C661.215659,280.73489 663.791209,288.461538 665.508242,291.037088 C666.366758,292.754121 665.508242,293.612637 663.791209,293.612637 C656.923077,294.471154 652.630495,286.744505 646.620879,287.603022 C643.186813,287.603022 638.894231,291.037088 636.318681,292.754121 C635.460165,293.612637 634.601648,295.32967 635.460165,297.046703 C642.328297,318.509615 631.167582,319.368132 630.309066,318.509615 C629.450549,317.651099 630.309066,314.217033 626.875,314.217033 C615.714286,315.075549 612.28022,307.348901 611.421703,301.339286 C611.421703,299.622253 610.563187,298.763736 608.846154,299.622253 C604.553571,303.056319 593.392857,309.065934 586.524725,299.622253 C585.666209,298.763736 582.232143,299.622253 580.51511,300.480769 C578.798077,301.339286 578.798077,298.763736 578.798077,297.90522 C579.656593,285.885989 588.241758,279.876374 592.534341,278.159341 C594.251374,277.300824 594.251374,276.442308 593.392857,275.583791 C589.958791,273.008242 583.090659,266.998626 585.666209,260.989011 C585.666209,260.130495 580.51511,257.554945 581.373626,256.696429 C595.10989,247.252747 611.421703,262.706044 613.997253,264.423077 C616.572802,266.14011 628.592033,266.998626 659.498626,248.96978 C679.244505,237.809066 689.546703,229.223901 694.697802,222.355769 C695.556319,221.497253 696.414835,219.78022 698.990385,219.78022 C711.009615,219.78022 723.887363,217.20467 733.331044,209.478022 C735.048077,207.760989 736.76511,208.619505 737.623626,209.478022 C755.652473,221.497253 764.237637,194.883242 767.671703,182.005495 C768.53022,179.429945 768.53022,177.712912 771.105769,176.854396 C836.353022,180.288462 959.120879,179.429945 959.120879,179.429945 C959.120879,179.429945 975.432692,180.288462 974.574176,170.84478 C973.715659,154.532967 905.892857,155.391484 856.098901,162.259615 C838.070055,164.835165 811.456044,166.552198 796.002747,160.542582 C789.134615,157.967033 783.983516,153.674451 781.407967,148.523352 C777.973901,141.65522 778.832418,138.221154 779.690934,133.928571 C780.549451,130.494505 782.266484,127.918956 783.983516,124.48489 C796.861264,104.739011 826.909341,103.021978 835.494505,103.021978 C837.211538,103.021978 838.070055,102.163462 838.928571,101.304945 C839.787088,97.0123626 843.221154,85.8516484 856.098901,85.8516484 C859.532967,85.8516484 862.967033,84.1346154 865.542582,83.2760989 C867.259615,82.4175824 868.118132,83.2760989 867.259615,84.1346154 C867.259615,85.8516484 866.401099,87.5686813 864.684066,89.2857143 C856.098901,97.0123626 856.957418,100.446429 858.674451,101.304945 C859.532967,102.163462 860.391484,101.304945 860.391484,101.304945 C887.005495,78.125 902.458791,93.5782967 906.751374,98.7293956 C907.60989,99.5879121 907.60989,101.304945 905.892857,101.304945 C887.864011,105.597527 880.995879,121.050824 844.07967,118.475275 C839.787088,118.475275 809.739011,116.758242 800.29533,130.494505 C795.144231,138.221154 798.578297,145.947802 814.89011,149.381868 C826.909341,151.957418 856.098901,147.664835 869.835165,146.806319 C882.712912,145.947802 941.092033,138.221154 971.14011,146.806319 C984.017857,150.240385 1002.90522,160.542582 998.612637,180.288462 C996.037088,192.307692 984.017857,197.458791 984.017857,197.458791 C984.017857,197.458791 950.535714,220.638736 1010.63187,221.497253 C1029.51923,221.497253 1010.63187,236.950549 1009.77335,241.243132 C1009.77335,244.677198 1013.20742,247.252747 1015.78297,248.96978 L1015.78297,248.96978 Z M906.751374,119.333791 C905.034341,119.333791 902.458791,120.192308 899.883242,121.909341 C894.732143,125.343407 873.269231,134.787088 866.401099,123.626374 C866.401099,123.626374 881.854396,122.767857 891.298077,114.182692 C891.298077,114.182692 901.600275,110.748626 908.468407,115.899725 C907.60989,117.616758 908.468407,119.333791 906.751374,119.333791 L906.751374,119.333791 Z M764.237637,0 C560.769231,0 358.159341,54.0865385 358.159341,54.0865385 L358.159341,324.519231 C358.159341,568.337912 532.438187,821.600275 763.379121,865.384615 C1002.90522,818.166209 1169.45742,568.337912 1169.45742,324.519231 L1169.45742,54.0865385 C1169.45742,54.0865385 1000.32967,0 764.237637,0 Z M1109.36126,423.248626 C1109.36126,621.565934 958.262363,801.854396 764.237637,801.854396 C569.354396,801.854396 418.255495,621.565934 418.255495,423.248626 L418.255495,81.5590659 L423.406593,79.842033 C423.406593,79.842033 598.543956,25.7554945 763.379121,25.7554945 C928.214286,25.7554945 1103.35165,79.842033 1103.35165,79.842033 L1108.50275,81.5590659 L1108.50275,423.248626 L1109.36126,423.248626 Z" id="Shape" fill-rule="nonzero"></path>
        </g>
    </g>
</svg>